<?xml version="1.0" encoding="utf-8"?>
<!-- Uploaded to: SVG Repo, www.svgrepo.com, Generator: SVG Repo Mixer Tools -->
<svg width="800px" height="800px" viewBox="-10 0 188 188" fill="none" xmlns="http://www.w3.org/2000/svg" xmlns:xlink="http://www.w3.org/1999/xlink">
<path d="M17.5 7C21.0899 7 24 4.08985 24 0.5C24 0.331764 23.9936 0.165021 23.9811 0H33.0189C33.0064 0.165021 33 0.331764 33 0.5C33 4.08985 35.9101 7 39.5 7C43.0899 7 46 4.08985 46 0.5C46 0.331764 45.9936 0.165021 45.9811 0H55.0189C55.0064 0.165021 55 0.331764 55 0.5C55 4.08985 57.9101 7 61.5 7C65.0899 7 68 4.08985 68 0.5C68 0.331764 67.9936 0.165021 67.9811 0H77.0189C77.0064 0.165021 77 0.331764 77 0.5C77 4.08985 79.9101 7 83.5 7C87.0899 7 90 4.08985 90 0.5C90 0.331764 89.9936 0.165021 89.9811 0H99.0189C99.0064 0.165021 99 0.331764 99 0.5C99 4.08985 101.91 7 105.5 7C109.09 7 112 4.08985 112 0.5C112 0.331764 111.994 0.165021 111.981 0H121.019C121.006 0.165021 121 0.331764 121 0.5C121 4.08985 123.91 7 127.5 7C131.09 7 134 4.08985 134 0.5C134 0.331764 133.994 0.165021 133.981 0H143.019C143.006 0.165021 143 0.331764 143 0.5C143 4.08985 145.91 7 149.5 7C153.09 7 156 4.08985 156 0.5C156 0.331764 155.994 0.165021 155.981 0H168V12.0189C167.835 12.0064 167.668 12 167.5 12C163.91 12 161 14.9101 161 18.5C161 22.0899 163.91 25 167.5 25C167.668 25 167.835 24.9936 168 24.9811V34.0189C167.835 34.0064 167.668 34 167.5 34C163.91 34 161 36.9101 161 40.5C161 44.0899 163.91 47 167.5 47C167.668 47 167.835 46.9936 168 46.9811V56.0189C167.835 56.0064 167.668 56 167.5 56C163.91 56 161 58.9101 161 62.5C161 66.0899 163.91 69 167.5 69C167.668 69 167.835 68.9936 168 68.9811V78.0189C167.835 78.0064 167.668 78 167.5 78C163.91 78 161 80.9101 161 84.5C161 88.0899 163.91 91 167.5 91C167.668 91 167.835 90.9936 168 90.9811V100.019C167.835 100.006 167.668 100 167.5 100C163.91 100 161 102.91 161 106.5C161 110.09 163.91 113 167.5 113C167.668 113 167.835 112.994 168 112.981V122.019C167.835 122.006 167.668 122 167.5 122C163.91 122 161 124.91 161 128.5C161 132.09 163.91 135 167.5 135C167.668 135 167.835 134.994 168 134.981V144.019C167.835 144.006 167.668 144 167.5 144C163.91 144 161 146.91 161 150.5C161 154.09 163.91 157 167.5 157C167.668 157 167.835 156.994 168 156.981V166.019C167.835 166.006 167.668 166 167.5 166C163.91 166 161 168.91 161 172.5C161 176.09 163.91 179 167.5 179C167.668 179 167.835 178.994 168 178.981V188H0V178.981C0.164975 178.994 0.331764 179 0.5 179C4.08985 179 7 176.09 7 172.5C7 168.91 4.08985 166 0.5 166C0.331764 166 0.164975 166.006 0 166.019V156.981C0.164975 156.994 0.331764 157 0.5 157C4.08985 157 7 154.09 7 150.5C7 146.91 4.08985 144 0.5 144C0.331764 144 0.164975 144.006 0 144.019V134.981C0.164975 134.994 0.331764 135 0.5 135C4.08985 135 7 132.09 7 128.5C7 124.91 4.08985 122 0.5 122C0.331764 122 0.164975 122.006 0 122.019V112.981C0.164975 112.994 0.331764 113 0.5 113C4.08985 113 7 110.09 7 106.5C7 102.91 4.08985 100 0.5 100C0.331764 100 0.164975 100.006 0 100.019V90.9811C0.164975 90.9936 0.331764 91 0.5 91C4.08985 91 7 88.0899 7 84.5C7 80.9101 4.08985 78 0.5 78C0.331764 78 0.164975 78.0064 0 78.0189V68.9811C0.164975 68.9936 0.331764 69 0.5 69C4.08985 69 7 66.0899 7 62.5C7 58.9101 4.08985 56 0.5 56C0.331764 56 0.164975 56.0064 0 56.0189V46.9811C0.164975 46.9936 0.331764 47 0.5 47C4.08985 47 7 44.0899 7 40.5C7 36.9101 4.08985 34 0.5 34C0.331764 34 0.164975 34.0064 0 34.0189V24.9811C0.164975 24.9936 0.331764 25 0.5 25C4.08985 25 7 22.0899 7 18.5C7 14.9101 4.08985 12 0.5 12C0.331764 12 0.164975 12.0064 0 12.0189V0H17.5Z" fill="#FFCCB3"/>
<rect x="14" y="16" width="140" height="156" rx="4" fill="#FFECD5"/>
<path d="M84 125H121V153C121 155.761 118.761 158 116 158H84V125Z" fill="#D6837C"/>
<path d="M41.9623 125.501C40.5185 123.495 40.8451 120.763 42.6626 119.088L85.6355 79.5L126.445 119.039C128.207 120.746 128.478 123.458 127.016 125.428C119.702 135.284 97.9014 163 84.0338 163C70.2004 163 49.103 135.42 41.9623 125.501Z" fill="#FEB1AA"/>
<path d="M67.4699 140.949C67.5146 140.911 67.558 140.871 67.5998 140.828C68.3146 140.099 68.3073 138.933 67.5835 138.223C66.8597 137.513 65.6935 137.528 64.9787 138.257C64.9093 138.328 64.8468 138.403 64.791 138.481C64.6135 137.788 64.053 137.229 63.3187 137.101C62.3252 136.928 61.3897 137.609 61.2292 138.623C61.1436 139.163 61.2955 139.689 61.6065 140.089C61.5309 140.093 61.4548 140.102 61.3786 140.115C60.3681 140.295 59.7049 141.244 59.8973 142.234C60.0896 143.224 61.0647 143.88 62.0751 143.7C62.1297 143.69 62.1832 143.678 62.2356 143.664C62.2225 143.717 62.2116 143.771 62.203 143.825C62.0424 144.839 62.7175 145.801 63.7109 145.975C64.7044 146.148 65.6399 145.467 65.8004 144.453C65.8147 144.363 65.8224 144.273 65.8238 144.184C66.2077 144.422 66.6795 144.526 67.1594 144.44C68.1698 144.26 68.833 143.312 68.6407 142.322C68.515 141.675 68.0553 141.17 67.4699 140.949Z" fill="white" fill-opacity="0.6"/>
<path d="M87.1447 149.25C87.1509 149.186 87.154 149.12 87.154 149.054C87.154 147.919 86.2408 147 85.1142 147C83.9877 147 83.0745 147.919 83.0745 149.054C83.0745 149.164 83.0831 149.272 83.0997 149.377C82.4201 148.966 81.5405 148.958 80.8583 149.428C79.9355 150.064 79.7236 151.332 80.385 152.261C80.7376 152.756 81.2672 153.055 81.8247 153.13C81.7681 153.192 81.7146 153.259 81.6646 153.329C81.0033 154.258 81.2152 155.526 82.138 156.162C83.0607 156.797 84.345 156.559 85.0064 155.63C85.042 155.58 85.0752 155.529 85.1058 155.477C85.1365 155.529 85.1696 155.58 85.2053 155.63C85.8667 156.559 87.1509 156.797 88.0737 156.162C88.9965 155.526 89.2084 154.258 88.547 153.329C88.4883 153.246 88.4247 153.169 88.3568 153.098C88.8464 152.988 89.3009 152.702 89.615 152.261C90.2764 151.332 90.0645 150.064 89.1417 149.428C88.5388 149.013 87.7817 148.971 87.1447 149.25Z" fill="white" fill-opacity="0.6"/>
<path d="M107.47 140.949C107.515 140.911 107.558 140.871 107.6 140.828C108.315 140.099 108.307 138.933 107.583 138.223C106.86 137.513 105.694 137.528 104.979 138.257C104.909 138.328 104.847 138.403 104.791 138.481C104.613 137.788 104.053 137.229 103.319 137.101C102.325 136.928 101.39 137.609 101.229 138.623C101.144 139.163 101.295 139.689 101.607 140.089C101.531 140.093 101.455 140.102 101.379 140.115C100.368 140.295 99.7049 141.244 99.8973 142.234C100.09 143.224 101.065 143.88 102.075 143.7C102.13 143.69 102.183 143.678 102.236 143.664C102.223 143.717 102.212 143.771 102.203 143.825C102.042 144.839 102.718 145.801 103.711 145.975C104.704 146.148 105.64 145.467 105.8 144.453C105.815 144.363 105.822 144.273 105.824 144.184C106.208 144.422 106.68 144.526 107.159 144.44C108.17 144.26 108.833 143.312 108.641 142.322C108.515 141.675 108.055 141.17 107.47 140.949Z" fill="white" fill-opacity="0.6"/>
<path d="M27.139 131.382C47.847 147.925 71.5346 106.197 71.5346 106.197L50.4509 56.9425C50.4509 56.9425 6.43089 114.84 27.139 131.382Z" fill="#FFD93C"/>
<path d="M140.532 131.382C119.824 147.925 96.1367 106.197 96.1367 106.197L117.654 56.4255C117.654 56.4255 161.24 114.84 140.532 131.382Z" fill="#FFD93C"/>
<g style="mix-blend-mode:multiply">
<path d="M32.2359 124.454C48.3358 137.315 66.7522 104.872 66.7522 104.872L50.3603 66.5786C50.3603 66.5786 16.1359 111.592 32.2359 124.454Z" fill="#FFD93C" fill-opacity="0.5"/>
</g>
<g style="mix-blend-mode:multiply">
<path d="M135.565 124.454C119.465 137.315 101.049 104.872 101.049 104.872L117.441 66.5786C117.441 66.5786 151.665 111.592 135.565 124.454Z" fill="#FFD93C" fill-opacity="0.5"/>
</g>
<path fill-rule="evenodd" clip-rule="evenodd" d="M75.8591 42.4016C77.0345 37.7772 79.1167 31.8105 81.9845 32.1292C85.5329 32.5235 86.375 38.9318 86.5748 41.9511H87.154C87.2273 41.9511 87.3006 41.9513 87.3739 41.9517C89.0601 38.5678 93.3346 30.9154 96.9759 32.1292C99.8375 33.0831 98.0055 38.7306 96.1711 42.937C114.675 47.0519 128.509 63.5636 128.509 83.3066V95.7133C128.509 118.553 109.994 137.069 87.154 137.069H81.9845C59.1445 137.069 40.629 118.553 40.629 95.7133V83.3066C40.629 62.5479 55.9238 45.3615 75.8591 42.4016Z" fill="#FFF8DF"/>
<path fill-rule="evenodd" clip-rule="evenodd" d="M48.902 120.533C65.1216 115.194 76.8151 100.082 76.8151 82.2727C76.8151 68.4221 69.742 56.2025 58.9675 48.9432C47.9078 56.3657 40.629 68.9862 40.629 83.3066V95.7133C40.629 105.026 43.7073 113.62 48.902 120.533Z" fill="#FFEBA8"/>
<path fill-rule="evenodd" clip-rule="evenodd" d="M120.237 120.533C104.017 115.194 92.3234 100.082 92.3234 82.2727C92.3234 68.4221 99.3965 56.2025 110.171 48.9432C121.231 56.3657 128.509 68.9862 128.509 83.3066V95.7133C128.509 105.026 125.431 113.62 120.237 120.533Z" fill="#FFEBA8"/>
<ellipse cx="61.8237" cy="76.0694" rx="5.68638" ry="7.23721" fill="#744E1C"/>
<circle cx="59.239" cy="74.0016" r="2.06778" fill="white"/>
<ellipse rx="5.68638" ry="7.23721" transform="matrix(-1 0 0 1 105.247 76.0694)" fill="#744E1C"/>
<circle r="2.06778" transform="matrix(-1 0 0 1 102.662 74.0016)" fill="white"/>
<path d="M77.849 104.915L84.5693 100.883L91.2895 104.915V107.603C91.2895 111.314 88.2808 114.323 84.5693 114.323C80.8578 114.323 77.849 111.314 77.849 107.603V104.915Z" fill="#FEB1AA"/>
<path d="M93.3572 91.19C93.3572 93.6881 89.4227 95.7133 84.5692 95.7133C79.7157 95.7133 75.7811 93.6881 75.7811 91.19C75.7811 88.6919 79.7157 85.3744 84.5692 85.3744C89.4227 85.3744 93.3572 88.6919 93.3572 91.19Z" fill="#744E1C"/>
<circle cx="88.4463" cy="88.7345" r="1.29236" fill="white"/>
<path d="M84.5294 89.4304V98.5763C84.5294 101.563 86.9507 103.984 89.9374 103.984H90.693C93.2625 103.984 95.3455 101.901 95.3455 99.3319V99.3319" stroke="#744E1C" stroke-width="2.27455" stroke-linecap="round" stroke-linejoin="round"/>
<path d="M84.5294 89.4304V98.5763C84.5294 101.563 82.1082 103.984 79.1214 103.984H78.3659C75.7964 103.984 73.7134 101.901 73.7134 99.3319V99.3319" stroke="#744E1C" stroke-width="2.27455" stroke-linecap="round" stroke-linejoin="round"/>
<ellipse cx="57.1712" cy="90.5438" rx="8.2711" ry="5.16944" fill="#FFCABA"/>
<ellipse cx="110.933" cy="90.5438" rx="8.2711" ry="5.16944" fill="#FFCABA"/>
</svg>
